<svg width="100" height="100" viewBox="0 0 100 100" fill="none" xmlns="http://www.w3.org/2000/svg">
    <path d="M75.0003 50.5H82.8336V57.8333H75.0003H74.5003V58.3333V62.5C74.5003 63.8789 74.3381 65.2247 74.131 66.5918L74.0439 67.1667H74.6253H82.8336V74.5H71.6253H71.3376L71.193 74.7488C66.9446 82.061 59.0632 87 50.0003 87C40.9374 87 33.0561 82.061 28.8076 74.7488L28.6631 74.5H28.3753H17.167V67.1667H25.3753H25.9568L25.8697 66.5918C25.6625 65.2247 25.5003 63.8789 25.5003 62.5V58.3333V57.8333H25.0003H17.167V50.5H25.0003H25.5003V50V45.8333C25.5003 44.4544 25.6625 43.1087 25.8697 41.7416L25.9568 41.1667H25.3753H17.167V33.8333H28.3753H28.6641L28.8084 33.5832C30.6461 30.3979 33.1783 27.6614 36.2007 25.5784L36.6935 25.2387L36.2716 24.8142L29.873 18.3761L35.0428 13.2063L43.7726 21.896L43.9715 22.094L44.244 22.0274C46.0814 21.5782 47.9999 21.3333 50.0003 21.3333C52.0004 21.3333 53.9196 21.5781 55.8007 22.028L56.0728 22.093L56.2705 21.8952L64.9587 13.2071L70.1265 18.375L63.6884 24.8131L63.2612 25.2404L63.7608 25.5801C66.8232 27.6625 69.3547 30.3982 71.1922 33.5832L71.3365 33.8333H71.6253H82.8336V41.1667H74.6253H74.0439L74.131 41.7416C74.3381 43.1087 74.5003 44.4544 74.5003 45.8333V50V50.5H75.0003ZM58.3337 67.1667H58.8337V66.6667V58.3333V57.8333H58.3337H41.667H41.167V58.3333V66.6667V67.1667H41.667H58.3337ZM58.3337 50.5H58.8337V50V41.6667V41.1667H58.3337H41.667H41.167V41.6667V50V50.5H41.667H58.3337Z" fill="#E69825" stroke="#694610"/>
</svg>

