<?xml version="1.0" encoding="UTF-8" standalone="no"?>
<!DOCTYPE svg PUBLIC "-//W3C//DTD SVG 1.1//EN" "http://www.w3.org/Graphics/SVG/1.1/DTD/svg11.dtd">
<svg width="100%" height="100%" viewBox="0 0 1328 486" version="1.1" xmlns="http://www.w3.org/2000/svg" xmlns:xlink="http://www.w3.org/1999/xlink" xml:space="preserve" xmlns:serif="http://www.serif.com/" style="fill-rule:evenodd;clip-rule:evenodd;stroke-linecap:round;stroke-linejoin:round;stroke-miterlimit:1.5;">
    <g transform="matrix(1,0,0,1,-38.8654,-297.921)">
        <g transform="matrix(1,0,0,1,-9.7942,81.3052)">
            <g transform="matrix(1,0,0,1,-157.001,250.548)">
                <g transform="matrix(266.667,0,0,266.667,768.966,332.896)">
                    <rect x="0.08" y="-0.699" width="0.143" height="0.699" style="fill-rule:nonzero;"/>
                </g>
                <g transform="matrix(266.667,0,0,266.667,858.3,332.896)">
                    <path d="M0.07,-0.666L0.07,0L0.213,0L0.213,-0.699L0.07,-0.666Z" style="fill-rule:nonzero;"/>
                </g>
                <g transform="matrix(266.667,0,0,266.667,935.633,332.896)">
                    <path d="M0.07,-0.666L0.07,0L0.213,0L0.213,-0.699L0.07,-0.666Z" style="fill-rule:nonzero;"/>
                </g>
                <g transform="matrix(266.667,0,0,266.667,1012.97,332.896)">
                    <path d="M0.447,-0.495L0.363,-0.284L0.314,-0.152L0.312,-0.152L0.255,-0.284L0.17,-0.495L0.005,-0.495L0.249,0.011L0.163,0.216L0.309,0.216L0.607,-0.495L0.447,-0.495Z" style="fill-rule:nonzero;"/>
                </g>
                <g transform="matrix(266.667,0,0,266.667,1181.5,332.896)">
                    <path d="M0.419,-0.501C0.402,-0.507 0.382,-0.511 0.36,-0.511C0.277,-0.511 0.244,-0.481 0.216,-0.431L0.214,-0.431L0.192,-0.495L0.07,-0.495L0.07,0L0.214,0L0.214,-0.237C0.214,-0.329 0.255,-0.374 0.331,-0.374C0.367,-0.374 0.398,-0.363 0.419,-0.349L0.419,-0.501L0.419,-0.501Z" style="fill-rule:nonzero;"/>
                </g>
                <g transform="matrix(266.667,0,0,266.667,1300.43,332.896)">
                    <path d="M0.07,0L0.214,0L0.214,-0.495L0.07,-0.495L0.07,0ZM0.142,-0.555C0.186,-0.555 0.222,-0.59 0.222,-0.634C0.222,-0.678 0.186,-0.714 0.142,-0.714C0.098,-0.714 0.063,-0.678 0.063,-0.634C0.063,-0.59 0.098,-0.555 0.142,-0.555Z" style="fill-rule:nonzero;"/>
                </g>
                <g transform="matrix(266.667,0,0,266.667,1375.9,332.896)">
                    <path d="M0.32,-0.512C0.216,-0.512 0.121,-0.467 0.068,-0.386L0.192,-0.329C0.22,-0.364 0.26,-0.384 0.32,-0.384C0.409,-0.384 0.447,-0.336 0.447,-0.279C0.447,-0.279 0.377,-0.286 0.309,-0.286C0.131,-0.286 0.066,-0.243 0.066,-0.143C0.066,-0.043 0.147,0.015 0.283,0.015C0.334,0.015 0.406,-0.004 0.442,-0.065L0.444,-0.065L0.471,0L0.591,0L0.591,-0.258C0.591,-0.412 0.505,-0.512 0.32,-0.512ZM0.312,-0.1C0.233,-0.1 0.211,-0.119 0.211,-0.153C0.211,-0.186 0.232,-0.201 0.32,-0.201C0.387,-0.201 0.447,-0.195 0.447,-0.195C0.447,-0.128 0.387,-0.1 0.312,-0.1Z" style="fill-rule:nonzero;"/>
                </g>
            </g>
            <g id="illyria-mark-final-fix" transform="matrix(0.483076,-0.00201586,0.00201586,0.483076,291.206,459.162)">
                <g transform="matrix(1,0,0,1,-500,-500)">
                    <clipPath id="_clip1">
                        <rect x="0" y="0" width="1000" height="1000"/>
                    </clipPath>
                    <g clip-path="url(#_clip1)">
                        <g transform="matrix(1.67863,0,0,1.67863,-196.452,-235.098)">
                            <g id="L" transform="matrix(0.707107,0.707107,-0.707107,0.707107,783.093,-247.534)">
                                <path d="M162.162,385.843C162.162,385.843 176.319,679.279 521.236,744.916L162.162,385.843Z" style="fill:rgb(155,49,239);stroke:rgb(155,49,239);stroke-width:0.6px;"/>
                                <g transform="matrix(0,1,1,0,-223.681,223.681)">
                                    <path d="M162.162,385.843C162.162,385.843 176.319,679.279 521.236,744.916L162.162,385.843Z" style="fill:rgb(155,49,239);stroke:rgb(155,49,239);stroke-width:0.6px;"/>
                                </g>
                            </g>
                            <g id="L1" serif:id="L" transform="matrix(1,-1.04083e-17,1.04083e-17,1,103.691,-97.1456)">
                                <path d="M162.162,385.843C162.162,385.843 176.319,679.279 521.236,744.916L162.162,385.843Z" style="fill:rgb(127,37,237);stroke:rgb(127,37,236);stroke-width:0.6px;"/>
                                <g transform="matrix(0,1,1,0,-223.681,223.681)">
                                    <path d="M162.162,385.843C162.162,385.843 176.319,679.279 521.236,744.916L162.162,385.843Z" style="fill:rgb(127,37,237);stroke:rgb(127,37,236);stroke-width:0.6px;"/>
                                </g>
                            </g>
                            <g id="L2" serif:id="L" transform="matrix(0.707107,-0.707107,0.707107,0.707107,-270.378,489.605)">
                                <path d="M162.162,385.843C162.162,385.843 176.319,679.279 521.236,744.916L162.162,385.843Z" style="fill:rgb(98,38,215);stroke:rgb(98,38,216);stroke-width:0.6px;"/>
                                <g transform="matrix(0,1,1,0,-223.681,223.681)">
                                    <path d="M162.162,385.843C162.162,385.843 176.319,679.279 521.236,744.916L162.162,385.843Z" style="fill:rgb(98,38,215);stroke:rgb(98,38,216);stroke-width:0.6px;"/>
                                </g>
                            </g>
                        </g>
                    </g>
                </g>
            </g>
        </g>
    </g>
</svg>
