<?xml version="1.0" encoding="UTF-8" standalone="no"?>
<!DOCTYPE svg PUBLIC "-//W3C//DTD SVG 1.1//EN" "http://www.w3.org/Graphics/SVG/1.1/DTD/svg11.dtd">
<svg width="100%" height="100%" viewBox="0 0 2232 486" version="1.1" xmlns="http://www.w3.org/2000/svg" xmlns:xlink="http://www.w3.org/1999/xlink" xml:space="preserve" xmlns:serif="http://www.serif.com/" style="fill-rule:evenodd;clip-rule:evenodd;stroke-linecap:round;stroke-linejoin:round;stroke-miterlimit:1.5;">
    <g transform="matrix(1,0,0,1,-48.6878,-216.616)">
        <g transform="matrix(1,0,0,1,-157.001,250.548)">
            <g transform="matrix(266.667,0,0,266.667,768.966,332.896)">
                <rect x="0.08" y="-0.699" width="0.143" height="0.699"/>
            </g>
            <g transform="matrix(266.667,0,0,266.667,858.3,332.896)">
                <path d="M0.07,-0.666L0.07,0L0.213,0L0.213,-0.699L0.07,-0.666Z" style="fill-rule:nonzero;"/>
            </g>
            <g transform="matrix(266.667,0,0,266.667,935.633,332.896)">
                <path d="M0.07,-0.666L0.07,0L0.213,0L0.213,-0.699L0.07,-0.666Z" style="fill-rule:nonzero;"/>
            </g>
            <g transform="matrix(266.667,0,0,266.667,1012.97,332.896)">
                <path d="M0.447,-0.495L0.363,-0.284L0.314,-0.152L0.312,-0.152L0.255,-0.284L0.17,-0.495L0.005,-0.495L0.249,0.011L0.163,0.216L0.309,0.216L0.607,-0.495L0.447,-0.495Z" style="fill-rule:nonzero;"/>
            </g>
            <g transform="matrix(266.667,0,0,266.667,1181.5,332.896)">
                <path d="M0.419,-0.501C0.402,-0.507 0.382,-0.511 0.36,-0.511C0.277,-0.511 0.244,-0.481 0.216,-0.431L0.214,-0.431L0.192,-0.495L0.07,-0.495L0.07,0L0.214,0L0.214,-0.237C0.214,-0.329 0.255,-0.374 0.331,-0.374C0.367,-0.374 0.398,-0.363 0.419,-0.349L0.419,-0.501Z" style="fill-rule:nonzero;"/>
            </g>
            <g transform="matrix(266.667,0,0,266.667,1300.43,332.896)">
                <path d="M0.07,0L0.214,0L0.214,-0.495L0.07,-0.495L0.07,0ZM0.142,-0.555C0.186,-0.555 0.222,-0.59 0.222,-0.634C0.222,-0.678 0.186,-0.714 0.142,-0.714C0.098,-0.714 0.063,-0.678 0.063,-0.634C0.063,-0.59 0.098,-0.555 0.142,-0.555Z" style="fill-rule:nonzero;"/>
            </g>
            <g transform="matrix(266.667,0,0,266.667,1375.9,332.896)">
                <path d="M0.32,-0.512C0.216,-0.512 0.121,-0.467 0.068,-0.386L0.192,-0.329C0.22,-0.364 0.26,-0.384 0.32,-0.384C0.409,-0.384 0.447,-0.336 0.447,-0.279C0.447,-0.279 0.377,-0.286 0.309,-0.286C0.131,-0.286 0.066,-0.243 0.066,-0.143C0.066,-0.043 0.147,0.015 0.283,0.015C0.334,0.015 0.406,-0.004 0.442,-0.065L0.444,-0.065L0.471,0L0.591,0L0.591,-0.258C0.591,-0.412 0.505,-0.512 0.32,-0.512ZM0.312,-0.1C0.233,-0.1 0.211,-0.119 0.211,-0.153C0.211,-0.186 0.232,-0.201 0.32,-0.201C0.387,-0.201 0.447,-0.195 0.447,-0.195C0.447,-0.128 0.387,-0.1 0.312,-0.1Z" style="fill-rule:nonzero;"/>
            </g>
        </g>
        <g id="illyria-mark-final-fix" transform="matrix(0.48283,0,0,0.485899,290.205,459.651)">
            <g transform="matrix(1,0,0,1,-500,-500)">
                <clipPath id="_clip1">
                    <rect x="0" y="0" width="1000" height="1000"/>
                </clipPath>
                <g clip-path="url(#_clip1)">
                    <g transform="matrix(1.67863,0,0,1.67863,-196.452,-235.098)">
                        <g id="L" transform="matrix(0.707107,0.707107,-0.707107,0.707107,783.093,-247.534)">
                            <path d="M162.162,385.843C162.162,385.843 176.319,679.279 521.236,744.916L162.162,385.843Z" style="fill:rgb(155,49,239);stroke:rgb(155,49,239);stroke-width:0.6px;"/>
                            <g transform="matrix(0,1,1,0,-223.681,223.681)">
                                <path d="M162.162,385.843C162.162,385.843 176.319,679.279 521.236,744.916L162.162,385.843Z" style="fill:rgb(155,49,239);stroke:rgb(155,49,239);stroke-width:0.6px;"/>
                            </g>
                        </g>
                        <g id="L1" serif:id="L" transform="matrix(1,-1.04083e-17,1.04083e-17,1,103.691,-97.1456)">
                            <path d="M162.162,385.843C162.162,385.843 176.319,679.279 521.236,744.916L162.162,385.843Z" style="fill:rgb(127,37,237);stroke:rgb(127,37,236);stroke-width:0.6px;"/>
                            <g transform="matrix(0,1,1,0,-223.681,223.681)">
                                <path d="M162.162,385.843C162.162,385.843 176.319,679.279 521.236,744.916L162.162,385.843Z" style="fill:rgb(127,37,237);stroke:rgb(127,37,236);stroke-width:0.6px;"/>
                            </g>
                        </g>
                        <g id="L2" serif:id="L" transform="matrix(0.707107,-0.707107,0.707107,0.707107,-270.378,489.605)">
                            <path d="M162.162,385.843C162.162,385.843 176.319,679.279 521.236,744.916L162.162,385.843Z" style="fill:rgb(98,38,215);stroke:rgb(98,38,216);stroke-width:0.6px;"/>
                            <g transform="matrix(0,1,1,0,-223.681,223.681)">
                                <path d="M162.162,385.843C162.162,385.843 176.319,679.279 521.236,744.916L162.162,385.843Z" style="fill:rgb(98,38,215);stroke:rgb(98,38,216);stroke-width:0.6px;"/>
                            </g>
                        </g>
                    </g>
                </g>
            </g>
        </g>
        <g transform="matrix(1.02571,0,0,1.02571,-67.9917,273.174)">
            <g transform="matrix(250,0,0,250,1434.22,301.411)">
                <path d="M0.083,-0.137L0.046,-0.137C0.049,-0.11 0.056,-0.087 0.068,-0.068C0.079,-0.049 0.094,-0.033 0.113,-0.021C0.131,-0.008 0.153,0.001 0.178,0.007C0.203,0.013 0.23,0.016 0.259,0.016C0.324,0.016 0.373,0.003 0.405,-0.024C0.436,-0.051 0.452,-0.087 0.452,-0.134C0.452,-0.158 0.448,-0.178 0.44,-0.194C0.432,-0.21 0.421,-0.224 0.406,-0.234C0.392,-0.246 0.375,-0.254 0.354,-0.261C0.333,-0.268 0.311,-0.273 0.286,-0.277L0.222,-0.288C0.178,-0.295 0.146,-0.306 0.127,-0.321C0.108,-0.336 0.098,-0.358 0.098,-0.389C0.098,-0.404 0.101,-0.418 0.106,-0.431C0.111,-0.444 0.119,-0.455 0.13,-0.465C0.141,-0.474 0.157,-0.482 0.176,-0.487C0.195,-0.492 0.22,-0.495 0.249,-0.495C0.274,-0.495 0.296,-0.493 0.314,-0.489C0.331,-0.484 0.346,-0.478 0.358,-0.469C0.369,-0.461 0.379,-0.451 0.387,-0.438C0.394,-0.425 0.401,-0.411 0.406,-0.395L0.44,-0.402C0.435,-0.419 0.429,-0.435 0.421,-0.451C0.412,-0.466 0.401,-0.48 0.387,-0.491C0.372,-0.502 0.354,-0.511 0.332,-0.519C0.309,-0.526 0.282,-0.529 0.25,-0.529C0.189,-0.529 0.142,-0.516 0.11,-0.491C0.077,-0.465 0.061,-0.43 0.061,-0.386C0.061,-0.363 0.065,-0.343 0.074,-0.328C0.083,-0.313 0.094,-0.3 0.109,-0.29C0.124,-0.279 0.141,-0.271 0.161,-0.266C0.181,-0.26 0.203,-0.255 0.226,-0.251L0.281,-0.242C0.33,-0.234 0.365,-0.222 0.384,-0.205C0.403,-0.188 0.413,-0.164 0.413,-0.132C0.413,-0.115 0.41,-0.1 0.405,-0.086C0.4,-0.072 0.391,-0.06 0.379,-0.05C0.367,-0.039 0.351,-0.031 0.331,-0.025C0.311,-0.02 0.286,-0.017 0.257,-0.017C0.203,-0.017 0.162,-0.027 0.135,-0.047C0.107,-0.067 0.09,-0.097 0.083,-0.137Z" style="fill-rule:nonzero;"/>
            </g>
            <g transform="matrix(250,0,0,250,1560.47,301.411)">
                <path d="M0.466,0L0.466,-0.513L0.428,-0.513L0.428,-0.202C0.428,-0.172 0.425,-0.148 0.418,-0.13C0.411,-0.111 0.399,-0.093 0.38,-0.075C0.34,-0.038 0.293,-0.019 0.24,-0.019C0.193,-0.019 0.16,-0.032 0.139,-0.059C0.117,-0.086 0.107,-0.126 0.107,-0.18L0.107,-0.513L0.069,-0.513L0.069,-0.171C0.069,-0.112 0.083,-0.067 0.11,-0.034C0.137,-0.001 0.178,0.016 0.234,0.016C0.272,0.016 0.308,0.008 0.341,-0.009C0.374,-0.026 0.403,-0.052 0.428,-0.088L0.428,0L0.466,0Z" style="fill-rule:nonzero;"/>
            </g>
            <g transform="matrix(250,0,0,250,1694.97,301.411)">
                <path d="M0.11,-0.513L0.072,-0.513L0.072,0.194L0.11,0.194L0.11,-0.093C0.129,-0.054 0.155,-0.026 0.188,-0.009C0.221,0.008 0.256,0.016 0.294,0.016C0.328,0.016 0.359,0.01 0.387,-0.002C0.415,-0.014 0.439,-0.032 0.459,-0.055C0.479,-0.078 0.495,-0.106 0.505,-0.14C0.517,-0.174 0.522,-0.213 0.522,-0.258C0.522,-0.297 0.518,-0.333 0.508,-0.366C0.5,-0.399 0.486,-0.428 0.468,-0.452C0.449,-0.476 0.426,-0.495 0.399,-0.508C0.371,-0.522 0.338,-0.529 0.301,-0.529C0.254,-0.529 0.216,-0.519 0.185,-0.498C0.154,-0.476 0.129,-0.448 0.11,-0.413L0.11,-0.513ZM0.108,-0.233L0.108,-0.284C0.108,-0.318 0.114,-0.35 0.125,-0.379C0.136,-0.408 0.153,-0.433 0.176,-0.453C0.193,-0.468 0.213,-0.479 0.234,-0.486C0.255,-0.492 0.277,-0.495 0.298,-0.495C0.325,-0.495 0.35,-0.49 0.373,-0.481C0.396,-0.471 0.415,-0.456 0.432,-0.436C0.448,-0.416 0.46,-0.391 0.469,-0.362C0.478,-0.332 0.482,-0.297 0.482,-0.257C0.482,-0.216 0.477,-0.181 0.469,-0.151C0.46,-0.121 0.447,-0.096 0.43,-0.077C0.413,-0.057 0.393,-0.042 0.37,-0.033C0.347,-0.023 0.321,-0.018 0.292,-0.018C0.269,-0.018 0.248,-0.021 0.228,-0.028C0.208,-0.034 0.189,-0.044 0.172,-0.059C0.145,-0.084 0.128,-0.111 0.12,-0.141C0.112,-0.171 0.108,-0.202 0.108,-0.233Z" style="fill-rule:nonzero;"/>
            </g>
            <g transform="matrix(250,0,0,250,1838.47,301.411)">
                <path d="M0.11,-0.513L0.072,-0.513L0.072,0.194L0.11,0.194L0.11,-0.093C0.129,-0.054 0.155,-0.026 0.188,-0.009C0.221,0.008 0.256,0.016 0.294,0.016C0.328,0.016 0.359,0.01 0.387,-0.002C0.415,-0.014 0.439,-0.032 0.459,-0.055C0.479,-0.078 0.495,-0.106 0.505,-0.14C0.517,-0.174 0.522,-0.213 0.522,-0.258C0.522,-0.297 0.518,-0.333 0.508,-0.366C0.5,-0.399 0.486,-0.428 0.468,-0.452C0.449,-0.476 0.426,-0.495 0.399,-0.508C0.371,-0.522 0.338,-0.529 0.301,-0.529C0.254,-0.529 0.216,-0.519 0.185,-0.498C0.154,-0.476 0.129,-0.448 0.11,-0.413L0.11,-0.513ZM0.108,-0.233L0.108,-0.284C0.108,-0.318 0.114,-0.35 0.125,-0.379C0.136,-0.408 0.153,-0.433 0.176,-0.453C0.193,-0.468 0.213,-0.479 0.234,-0.486C0.255,-0.492 0.277,-0.495 0.298,-0.495C0.325,-0.495 0.35,-0.49 0.373,-0.481C0.396,-0.471 0.415,-0.456 0.432,-0.436C0.448,-0.416 0.46,-0.391 0.469,-0.362C0.478,-0.332 0.482,-0.297 0.482,-0.257C0.482,-0.216 0.477,-0.181 0.469,-0.151C0.46,-0.121 0.447,-0.096 0.43,-0.077C0.413,-0.057 0.393,-0.042 0.37,-0.033C0.347,-0.023 0.321,-0.018 0.292,-0.018C0.269,-0.018 0.248,-0.021 0.228,-0.028C0.208,-0.034 0.189,-0.044 0.172,-0.059C0.145,-0.084 0.128,-0.111 0.12,-0.141C0.112,-0.171 0.108,-0.202 0.108,-0.233Z" style="fill-rule:nonzero;"/>
            </g>
            <g transform="matrix(250,0,0,250,1981.97,301.411)">
                <path d="M0.092,-0.256C0.092,-0.288 0.096,-0.319 0.102,-0.347C0.11,-0.377 0.121,-0.402 0.137,-0.424C0.152,-0.446 0.172,-0.463 0.198,-0.476C0.223,-0.489 0.253,-0.495 0.289,-0.495C0.325,-0.495 0.356,-0.489 0.381,-0.476C0.406,-0.463 0.426,-0.446 0.442,-0.424C0.457,-0.402 0.469,-0.377 0.475,-0.347C0.483,-0.319 0.486,-0.288 0.486,-0.256C0.486,-0.224 0.483,-0.194 0.475,-0.165C0.469,-0.136 0.457,-0.111 0.442,-0.089C0.426,-0.067 0.406,-0.05 0.381,-0.037C0.356,-0.024 0.325,-0.018 0.289,-0.018C0.253,-0.018 0.223,-0.024 0.198,-0.037C0.172,-0.05 0.152,-0.067 0.137,-0.089C0.121,-0.111 0.11,-0.136 0.102,-0.165C0.096,-0.194 0.092,-0.224 0.092,-0.256ZM0.526,-0.256C0.526,-0.295 0.521,-0.332 0.511,-0.365C0.502,-0.398 0.487,-0.427 0.468,-0.452C0.448,-0.476 0.423,-0.495 0.394,-0.508C0.364,-0.522 0.329,-0.529 0.29,-0.529C0.251,-0.529 0.216,-0.522 0.187,-0.508C0.157,-0.494 0.132,-0.475 0.112,-0.45C0.092,-0.425 0.077,-0.397 0.067,-0.364C0.057,-0.331 0.052,-0.295 0.052,-0.256C0.052,-0.217 0.057,-0.181 0.067,-0.148C0.076,-0.115 0.091,-0.086 0.111,-0.062C0.13,-0.037 0.155,-0.018 0.185,-0.005C0.214,0.009 0.249,0.016 0.288,0.016C0.327,0.016 0.362,0.009 0.392,-0.005C0.421,-0.019 0.446,-0.038 0.466,-0.063C0.486,-0.087 0.501,-0.116 0.511,-0.149C0.521,-0.182 0.526,-0.218 0.526,-0.256Z" style="fill-rule:nonzero;"/>
            </g>
            <g transform="matrix(250,0,0,250,2126.47,301.411)">
                <path d="M0.072,-0.513L0.072,0L0.11,0L0.11,-0.315C0.11,-0.342 0.113,-0.364 0.119,-0.379C0.125,-0.394 0.134,-0.409 0.145,-0.422C0.166,-0.445 0.187,-0.462 0.209,-0.47C0.23,-0.48 0.253,-0.484 0.278,-0.484C0.285,-0.484 0.291,-0.484 0.296,-0.484C0.301,-0.483 0.306,-0.482 0.312,-0.481L0.317,-0.518C0.303,-0.52 0.29,-0.521 0.279,-0.521C0.244,-0.521 0.212,-0.513 0.184,-0.496C0.155,-0.479 0.131,-0.455 0.11,-0.424L0.11,-0.513L0.072,-0.513Z" style="fill-rule:nonzero;"/>
            </g>
            <g transform="matrix(250,0,0,250,2209.72,301.411)">
                <path d="M0.1,-0.479L0.1,-0.136C0.1,-0.116 0.102,-0.097 0.106,-0.08C0.11,-0.062 0.117,-0.046 0.127,-0.033C0.136,-0.019 0.149,-0.008 0.166,-0.001C0.182,0.007 0.203,0.011 0.228,0.011C0.244,0.011 0.259,0.01 0.274,0.007C0.289,0.004 0.301,0 0.31,-0.005L0.3,-0.035C0.29,-0.031 0.279,-0.028 0.268,-0.025C0.256,-0.023 0.244,-0.022 0.232,-0.022C0.198,-0.022 0.174,-0.032 0.16,-0.051C0.145,-0.07 0.138,-0.097 0.138,-0.133L0.138,-0.479L0.299,-0.479L0.299,-0.513L0.138,-0.513L0.138,-0.655L0.1,-0.655L0.1,-0.513L0.021,-0.513L0.021,-0.479L0.1,-0.479Z" style="fill-rule:nonzero;"/>
            </g>
        </g>
    </g>
</svg>
