<?xml version="1.0" encoding="UTF-8" standalone="no"?>
<!DOCTYPE svg PUBLIC "-//W3C//DTD SVG 1.1//EN" "http://www.w3.org/Graphics/SVG/1.1/DTD/svg11.dtd">
<svg width="100%" height="100%" viewBox="0 0 1000 1000" version="1.1" xmlns="http://www.w3.org/2000/svg" xmlns:xlink="http://www.w3.org/1999/xlink" xml:space="preserve" xmlns:serif="http://www.serif.com/" style="fill-rule:evenodd;clip-rule:evenodd;stroke-linejoin:round;stroke-miterlimit:2;">
    <g transform="matrix(1.67863,0,0,1.67863,-196.452,-235.098)">
        <g id="L" transform="matrix(0.707107,0.707107,-0.707107,0.707107,783.093,-247.534)">
            <path d="M162.162,385.843C162.162,385.843 176.319,679.279 521.236,744.916L162.162,385.843Z" style="fill:rgb(155,49,239);"/>
            <g transform="matrix(-0,1,1,0,-223.681,223.681)">
                <path d="M162.162,385.843C162.162,385.843 176.319,679.279 521.236,744.916L162.162,385.843Z" style="fill:rgb(155,49,239);"/>
            </g>
        </g>
        <g id="L1" serif:id="L" transform="matrix(1,-1.04083e-17,1.04083e-17,1,103.691,-97.1456)">
            <path d="M162.162,385.843C162.162,385.843 176.319,679.279 521.236,744.916L162.162,385.843Z" style="fill:rgb(127,29,237);"/>
            <g transform="matrix(-0,1,1,0,-223.681,223.681)">
                <path d="M162.162,385.843C162.162,385.843 176.319,679.279 521.236,744.916L162.162,385.843Z" style="fill:rgb(127,29,237);"/>
            </g>
        </g>
        <g id="L2" serif:id="L" transform="matrix(0.707107,-0.707107,0.707107,0.707107,-270.378,489.605)">
            <path d="M162.162,385.843C162.162,385.843 176.319,679.279 521.236,744.916L162.162,385.843Z" style="fill:rgb(98,38,215);"/>
            <g transform="matrix(-0,1,1,0,-223.681,223.681)">
                <path d="M162.162,385.843C162.162,385.843 176.319,679.279 521.236,744.916L162.162,385.843Z" style="fill:rgb(98,38,215);"/>
            </g>
        </g>
    </g>
</svg>
