<svg width="360" height="126" viewBox="0 0 360 126" fill="none" xmlns="http://www.w3.org/2000/svg">
    <g filter="url(#filter0_d)">
        <rect x="35" y="20" width="290" height="58" rx="5" fill="url(#paint0_linear)"/>
    </g>
    <path fill-rule="evenodd" clip-rule="evenodd" d="M70 40L71.5862 41.5863L65.3088 47.875H79V50.125H65.3088L71.5862 56.4137L70 58L61 49L70 40Z" fill="white"/>
    <path d="M134.032 46.168C134.032 47.56 133.552 48.72 132.592 49.648C131.648 50.56 130.2 51.016 128.248 51.016H125.032V58H122.848V41.272H128.248C130.136 41.272 131.568 41.728 132.544 42.64C133.536 43.552 134.032 44.728 134.032 46.168ZM128.248 49.216C129.464 49.216 130.36 48.952 130.936 48.424C131.512 47.896 131.8 47.144 131.8 46.168C131.8 44.104 130.616 43.072 128.248 43.072H125.032V49.216H128.248ZM145.554 58L141.57 51.16H138.93V58H136.746V41.272H142.146C143.41 41.272 144.474 41.488 145.338 41.92C146.218 42.352 146.874 42.936 147.306 43.672C147.738 44.408 147.954 45.248 147.954 46.192C147.954 47.344 147.618 48.36 146.946 49.24C146.29 50.12 145.298 50.704 143.97 50.992L148.17 58H145.554ZM138.93 49.408H142.146C143.33 49.408 144.218 49.12 144.81 48.544C145.402 47.952 145.698 47.168 145.698 46.192C145.698 45.2 145.402 44.432 144.81 43.888C144.234 43.344 143.346 43.072 142.146 43.072H138.93V49.408ZM158.932 58.168C157.38 58.168 155.964 57.808 154.684 57.088C153.404 56.352 152.388 55.336 151.636 54.04C150.9 52.728 150.532 51.256 150.532 49.624C150.532 47.992 150.9 46.528 151.636 45.232C152.388 43.92 153.404 42.904 154.684 42.184C155.964 41.448 157.38 41.08 158.932 41.08C160.5 41.08 161.924 41.448 163.204 42.184C164.484 42.904 165.492 43.912 166.228 45.208C166.964 46.504 167.332 47.976 167.332 49.624C167.332 51.272 166.964 52.744 166.228 54.04C165.492 55.336 164.484 56.352 163.204 57.088C161.924 57.808 160.5 58.168 158.932 58.168ZM158.932 56.272C160.1 56.272 161.148 56 162.076 55.456C163.02 54.912 163.756 54.136 164.284 53.128C164.828 52.12 165.1 50.952 165.1 49.624C165.1 48.28 164.828 47.112 164.284 46.12C163.756 45.112 163.028 44.336 162.1 43.792C161.172 43.248 160.116 42.976 158.932 42.976C157.748 42.976 156.692 43.248 155.764 43.792C154.836 44.336 154.1 45.112 153.556 46.12C153.028 47.112 152.764 48.28 152.764 49.624C152.764 50.952 153.028 52.12 153.556 53.128C154.1 54.136 154.836 54.912 155.764 55.456C156.708 56 157.764 56.272 158.932 56.272ZM175.423 41.272C177.247 41.272 178.823 41.616 180.151 42.304C181.495 42.976 182.519 43.944 183.223 45.208C183.943 46.472 184.303 47.96 184.303 49.672C184.303 51.384 183.943 52.872 183.223 54.136C182.519 55.384 181.495 56.344 180.151 57.016C178.823 57.672 177.247 58 175.423 58H170.215V41.272H175.423ZM175.423 56.2C177.583 56.2 179.231 55.632 180.367 54.496C181.503 53.344 182.071 51.736 182.071 49.672C182.071 47.592 181.495 45.968 180.343 44.8C179.207 43.632 177.567 43.048 175.423 43.048H172.399V56.2H175.423ZM189.32 41.272V51.856C189.32 53.344 189.68 54.448 190.4 55.168C191.136 55.888 192.152 56.248 193.448 56.248C194.728 56.248 195.728 55.888 196.448 55.168C197.184 54.448 197.552 53.344 197.552 51.856V41.272H199.736V51.832C199.736 53.224 199.456 54.4 198.896 55.36C198.336 56.304 197.576 57.008 196.616 57.472C195.672 57.936 194.608 58.168 193.424 58.168C192.24 58.168 191.168 57.936 190.208 57.472C189.264 57.008 188.512 56.304 187.952 55.36C187.408 54.4 187.136 53.224 187.136 51.832V41.272H189.32ZM202.563 49.624C202.563 47.992 202.931 46.528 203.667 45.232C204.403 43.92 205.403 42.896 206.667 42.16C207.947 41.424 209.363 41.056 210.915 41.056C212.739 41.056 214.331 41.496 215.691 42.376C217.051 43.256 218.043 44.504 218.667 46.12H216.051C215.587 45.112 214.915 44.336 214.035 43.792C213.171 43.248 212.131 42.976 210.915 42.976C209.747 42.976 208.699 43.248 207.771 43.792C206.843 44.336 206.115 45.112 205.587 46.12C205.059 47.112 204.795 48.28 204.795 49.624C204.795 50.952 205.059 52.12 205.587 53.128C206.115 54.12 206.843 54.888 207.771 55.432C208.699 55.976 209.747 56.248 210.915 56.248C212.131 56.248 213.171 55.984 214.035 55.456C214.915 54.912 215.587 54.136 216.051 53.128H218.667C218.043 54.728 217.051 55.968 215.691 56.848C214.331 57.712 212.739 58.144 210.915 58.144C209.363 58.144 207.947 57.784 206.667 57.064C205.403 56.328 204.403 55.312 203.667 54.016C202.931 52.72 202.563 51.256 202.563 49.624ZM232.214 41.272V43.048H227.654V58H225.47V43.048H220.886V41.272H232.214ZM240.207 58.168C239.103 58.168 238.111 57.976 237.231 57.592C236.367 57.192 235.687 56.648 235.191 55.96C234.695 55.256 234.439 54.448 234.423 53.536H236.751C236.831 54.32 237.151 54.984 237.711 55.528C238.287 56.056 239.119 56.32 240.207 56.32C241.247 56.32 242.063 56.064 242.655 55.552C243.263 55.024 243.567 54.352 243.567 53.536C243.567 52.896 243.391 52.376 243.039 51.976C242.687 51.576 242.247 51.272 241.719 51.064C241.191 50.856 240.479 50.632 239.583 50.392C238.479 50.104 237.591 49.816 236.919 49.528C236.263 49.24 235.695 48.792 235.215 48.184C234.751 47.56 234.519 46.728 234.519 45.688C234.519 44.776 234.751 43.968 235.215 43.264C235.679 42.56 236.327 42.016 237.159 41.632C238.007 41.248 238.975 41.056 240.063 41.056C241.631 41.056 242.911 41.448 243.903 42.232C244.911 43.016 245.479 44.056 245.607 45.352H243.207C243.127 44.712 242.791 44.152 242.199 43.672C241.607 43.176 240.823 42.928 239.847 42.928C238.935 42.928 238.191 43.168 237.615 43.648C237.039 44.112 236.751 44.768 236.751 45.616C236.751 46.224 236.919 46.72 237.255 47.104C237.607 47.488 238.031 47.784 238.527 47.992C239.039 48.184 239.751 48.408 240.663 48.664C241.767 48.968 242.655 49.272 243.327 49.576C243.999 49.864 244.575 50.32 245.055 50.944C245.535 51.552 245.775 52.384 245.775 53.44C245.775 54.256 245.559 55.024 245.127 55.744C244.695 56.464 244.055 57.048 243.207 57.496C242.359 57.944 241.359 58.168 240.207 58.168Z" fill="white"/>
    <defs>
        <filter id="filter0_d" x="0" y="0" width="360" height="128" filterUnits="userSpaceOnUse" color-interpolation-filters="sRGB">
            <feFlood flood-opacity="0" result="BackgroundImageFix"/>
            <feColorMatrix in="SourceAlpha" type="matrix" values="0 0 0 0 0 0 0 0 0 0 0 0 0 0 0 0 0 0 127 0"/>
            <feOffset dy="15"/>
            <feGaussianBlur stdDeviation="17.5"/>
            <feColorMatrix type="matrix" values="0 0 0 0 0.776471 0 0 0 0 0.47451 0 0 0 0 0.890196 0 0 0 0.45 0"/>
            <feBlend mode="normal" in2="BackgroundImageFix" result="effect1_dropShadow"/>
            <feBlend mode="normal" in="SourceGraphic" in2="effect1_dropShadow" result="shape"/>
        </filter>
        <linearGradient id="paint0_linear" x1="35" y1="78" x2="325" y2="20" gradientUnits="userSpaceOnUse">
            <stop stop-color="#9B56FE"/>
            <stop offset="1" stop-color="#E06BDA"/>
        </linearGradient>
    </defs>
</svg>
