<svg width="100" height="100" viewBox="0 0 100 100" fill="none" xmlns="http://www.w3.org/2000/svg">
    <path d="M54.1663 79.6666H54.6663V79.1666V70.8333V70.3333H54.1663H45.833H45.333V70.8333V79.1666V79.6666H45.833H54.1663ZM59.3973 51.0594L59.3988 51.0579L63.1449 47.2285C63.1456 47.2278 63.1462 47.2271 63.1469 47.2265C65.6107 44.7617 67.1663 41.3035 67.1663 37.4999C67.1663 28.0154 59.4842 20.3333 49.9997 20.3333C40.5152 20.3333 32.833 28.0154 32.833 37.4999V37.9999H33.333H41.6663H42.1663V37.4999C42.1663 33.1927 45.6925 29.6666 49.9997 29.6666C54.3069 29.6666 57.833 33.1927 57.833 37.4999C57.833 39.6555 56.9717 41.6099 55.526 43.0166L55.5259 43.0165L55.5183 43.0242L50.352 48.2738C47.2653 51.4034 45.333 55.6941 45.333 60.4166V62.4999V62.9999H45.833H54.1663H54.6663V62.4999C54.6663 59.426 55.1272 57.3163 55.931 55.6145C56.737 53.9079 57.9055 52.5719 59.3973 51.0594ZM8.83301 49.9999C8.83301 27.2761 27.2758 8.83325 49.9997 8.83325C72.7235 8.83325 91.1664 27.2761 91.1664 49.9999C91.1664 72.7238 72.7235 91.1666 49.9997 91.1666C27.2758 91.1666 8.83301 72.7238 8.83301 49.9999Z" fill="#73E11C" stroke="#3E7710"/>
</svg>
